<?xml version="1.0" encoding="UTF-8"?>
<!DOCTYPE svg PUBLIC "-//W3C//DTD SVG 1.1//EN" "http://www.w3.org/Graphics/SVG/1.1/DTD/svg11.dtd">
<svg xmlns="http://www.w3.org/2000/svg" version="1.1" width="512px" height="512px" style="shape-rendering:geometricPrecision; text-rendering:geometricPrecision; image-rendering:optimizeQuality; fill-rule:evenodd; clip-rule:evenodd" xmlns:xlink="http://www.w3.org/1999/xlink">
<g><path style="opacity:0.986" fill="#a4e787" d="M 325.5,52.5 C 320.435,66.6279 313.268,79.6279 304,91.5C 299.029,97.9017 292.529,101.568 284.5,102.5C 292.131,94.3684 299.964,86.3684 308,78.5C 308.667,77.5 308.667,76.5 308,75.5C 304.953,72.1168 301.62,69.1168 298,66.5C 286.34,77.3266 274.84,88.3266 263.5,99.5C 257.421,95.7567 252.755,90.7567 249.5,84.5C 251.55,78.2506 255.217,73.0839 260.5,69C 273.849,59.3264 288.515,52.3264 304.5,48C 309.833,47.3333 315.167,47.3333 320.5,48C 322.66,48.9959 324.327,50.4959 325.5,52.5 Z"/></g>
<g><path style="opacity:0.999" fill="#87ca83" d="M 325.5,52.5 C 328.127,61.0472 327.96,69.7138 325,78.5C 319.582,95.1855 310.749,109.685 298.5,122C 287.223,128.32 275.557,129.154 263.5,124.5C 269.776,116.555 276.776,109.222 284.5,102.5C 292.529,101.568 299.029,97.9017 304,91.5C 313.268,79.6279 320.435,66.6279 325.5,52.5 Z"/></g>
<g><path style="opacity:0.982" fill="#98ba5c" d="M 284.5,102.5 C 276.776,109.222 269.776,116.555 263.5,124.5C 258.854,128.479 254.521,132.812 250.5,137.5C 254.673,144.353 257.673,151.686 259.5,159.5C 260.319,161.772 260.985,164.106 261.5,166.5C 263.18,174.725 263.847,183.059 263.5,191.5C 258.167,191.5 252.833,191.5 247.5,191.5C 247.666,185.824 247.499,180.157 247,174.5C 246.594,171.258 245.761,168.258 244.5,165.5C 244.405,163.214 243.738,161.214 242.5,159.5C 232.266,133.201 212.933,120.034 184.5,120C 183.361,114.584 183.194,109.084 184,103.5C 199.513,102.336 214.013,105.836 227.5,114C 231.639,116.639 235.639,119.472 239.5,122.5C 243.521,119.146 247.188,115.479 250.5,111.5C 255.44,108.23 259.773,104.23 263.5,99.5C 274.84,88.3266 286.34,77.3266 298,66.5C 301.62,69.1168 304.953,72.1168 308,75.5C 308.667,76.5 308.667,77.5 308,78.5C 299.964,86.3684 292.131,94.3684 284.5,102.5 Z"/></g>
<g><path style="opacity:0.999" fill="#87c983" d="M 249.5,84.5 C 252.755,90.7567 257.421,95.7567 263.5,99.5C 259.773,104.23 255.44,108.23 250.5,111.5C 248.121,106.636 247.121,101.469 247.5,96C 247.286,91.8673 247.952,88.034 249.5,84.5 Z"/></g>
<g><path style="opacity:1" fill="#86c983" d="M 410.5,332.5 C 431.646,320.885 441.313,302.885 439.5,278.5C 447.515,275.991 454.015,271.324 459,264.5C 469.826,244.322 467.326,226.155 451.5,210C 457.99,189.802 452.656,173.469 435.5,161C 423.977,155.123 411.977,153.956 399.5,157.5C 395.359,154.13 391.359,150.796 387.5,147.5C 406.238,139.464 422.738,142.798 437,157.5C 460.004,150.61 477.337,157.61 489,178.5C 493.383,188.986 493.549,199.486 489.5,210C 503.442,223.271 507.276,239.105 501,257.5C 496.304,267.696 488.804,275.029 478.5,279.5C 479.579,301.174 471.246,318.007 453.5,330C 439.381,337.41 425.048,338.243 410.5,332.5 Z"/></g>
<g><path style="opacity:0.999" fill="#a5e786" d="M 387.5,147.5 C 391.359,150.796 395.359,154.13 399.5,157.5C 411.977,153.956 423.977,155.123 435.5,161C 452.656,173.469 457.99,189.802 451.5,210C 467.326,226.155 469.826,244.322 459,264.5C 454.015,271.324 447.515,275.991 439.5,278.5C 441.313,302.885 431.646,320.885 410.5,332.5C 404.182,330.678 398.849,327.344 394.5,322.5C 389.647,317.638 385.981,311.971 383.5,305.5C 379.184,304.636 374.851,303.969 370.5,303.5C 352.797,296.114 343.464,282.781 342.5,263.5C 339.984,263.245 337.65,262.411 335.5,261C 331.957,257.951 328.291,255.118 324.5,252.5C 319.192,246.214 315.192,239.214 312.5,231.5C 311.806,226.195 311.472,220.862 311.5,215.5C 311.35,210.699 312.016,206.033 313.5,201.5C 317.008,194.32 321.341,187.653 326.5,181.5C 338.472,172.178 352.138,167.844 367.5,168.5C 371.485,158.85 378.152,151.85 387.5,147.5 Z"/></g>
<g><path style="opacity:0.987" fill="#fd8205" d="M 242.5,159.5 C 243.738,161.214 244.405,163.214 244.5,165.5C 244.586,166.496 244.252,167.329 243.5,168C 207.067,183.265 183.067,209.765 171.5,247.5C 170.167,247.5 168.833,247.5 167.5,247.5C 167.179,253.026 167.512,258.36 168.5,263.5C 168.5,264.833 168.5,266.167 168.5,267.5C 164.527,265.513 160.527,263.513 156.5,261.5C 159.77,259.526 163.103,257.526 166.5,255.5C 157.411,252.14 148.411,248.807 139.5,245.5C 152.136,204.696 178.803,177.53 219.5,164C 227.064,161.921 234.731,160.421 242.5,159.5 Z"/></g>
<g><path style="opacity:1" fill="#fec146" d="M 259.5,159.5 C 284.136,160.045 306.469,167.379 326.5,181.5C 321.341,187.653 317.008,194.32 313.5,201.5C 299.964,184.384 282.631,172.717 261.5,166.5C 260.985,164.106 260.319,161.772 259.5,159.5 Z"/></g>
<g><path style="opacity:1" fill="#fea426" d="M 244.5,165.5 C 245.761,168.258 246.594,171.258 247,174.5C 247.499,180.157 247.666,185.824 247.5,191.5C 252.833,191.5 258.167,191.5 263.5,191.5C 263.847,183.059 263.18,174.725 261.5,166.5C 282.631,172.717 299.964,184.384 313.5,201.5C 312.016,206.033 311.35,210.699 311.5,215.5C 308.833,215.5 306.167,215.5 303.5,215.5C 303.5,220.833 303.5,226.167 303.5,231.5C 306.5,231.5 309.5,231.5 312.5,231.5C 315.192,239.214 319.192,246.214 324.5,252.5C 322.419,271.911 316.252,289.911 306,306.5C 300.963,311.369 296.13,316.369 291.5,321.5C 287.369,325.13 283.369,328.963 279.5,333C 282.704,336.036 285.704,339.203 288.5,342.5C 288.389,343.117 288.056,343.617 287.5,344C 273.958,345.382 260.625,347.215 247.5,349.5C 243.466,349.505 239.466,349.838 235.5,350.5C 227.007,346.243 218.673,341.41 210.5,336C 206.964,332.296 203.298,328.796 199.5,325.5C 198.063,301.287 187.73,281.954 168.5,267.5C 168.5,266.167 168.5,264.833 168.5,263.5C 173.5,263.5 178.5,263.5 183.5,263.5C 183.5,258.167 183.5,252.833 183.5,247.5C 179.5,247.5 175.5,247.5 171.5,247.5C 183.067,209.765 207.067,183.265 243.5,168C 244.252,167.329 244.586,166.496 244.5,165.5 Z"/></g>
<g><path style="opacity:0.967" fill="#98ba5c" d="M 109.5,239.5 C 111.018,247.416 111.685,255.416 111.5,263.5C 106.167,263.5 100.833,263.5 95.5,263.5C 95.9206,255.268 94.9206,247.268 92.5,239.5C 91.0282,229.891 87.3615,221.225 81.5,213.5C 85.1667,209.167 89.1667,205.167 93.5,201.5C 102.914,212.398 108.247,225.064 109.5,239.5 Z"/></g>
<g><path style="opacity:1" fill="#f2e3a6" d="M 311.5,215.5 C 311.472,220.862 311.806,226.195 312.5,231.5C 309.5,231.5 306.5,231.5 303.5,231.5C 303.5,226.167 303.5,220.833 303.5,215.5C 306.167,215.5 308.833,215.5 311.5,215.5 Z"/></g>
<g><path style="opacity:0.992" fill="#a5e786" d="M 92.5,239.5 C 94.9206,247.268 95.9206,255.268 95.5,263.5C 100.833,263.5 106.167,263.5 111.5,263.5C 111.685,255.416 111.018,247.416 109.5,239.5C 119.758,240.352 129.758,242.352 139.5,245.5C 148.411,248.807 157.411,252.14 166.5,255.5C 163.103,257.526 159.77,259.526 156.5,261.5C 149.138,264.014 142.138,267.347 135.5,271.5C 137.594,275.364 139.928,279.031 142.5,282.5C 145.336,286.177 148.003,290.011 150.5,294C 146.771,293.707 143.104,292.874 139.5,291.5C 127.596,287.31 115.596,283.31 103.5,279.5C 91.5918,283.135 79.9251,287.135 68.5,291.5C 64.5082,292.671 60.5082,293.505 56.5,294C 58.7195,290.385 61.0528,286.885 63.5,283.5C 66.4997,279.813 69.1664,275.813 71.5,271.5C 64.6247,267.061 57.2914,263.727 49.5,261.5C 46.7235,259.608 43.7235,257.941 40.5,256.5C 39.1667,255.833 39.1667,255.167 40.5,254.5C 57.4181,247.938 74.7514,242.938 92.5,239.5 Z"/></g>
<g><path style="opacity:1" fill="#f4e3a6" d="M 171.5,247.5 C 175.5,247.5 179.5,247.5 183.5,247.5C 183.5,252.833 183.5,258.167 183.5,263.5C 178.5,263.5 173.5,263.5 168.5,263.5C 167.512,258.36 167.179,253.026 167.5,247.5C 168.833,247.5 170.167,247.5 171.5,247.5 Z"/></g>
<g><path style="opacity:1" fill="#f4e3a6" d="M 303.5,247.5 C 308.833,247.5 314.167,247.5 319.5,247.5C 319.5,252.833 319.5,258.167 319.5,263.5C 314.167,263.5 308.833,263.5 303.5,263.5C 303.5,258.167 303.5,252.833 303.5,247.5 Z"/></g>
<g><path style="opacity:1" fill="#98ba5b" d="M 324.5,252.5 C 328.291,255.118 331.957,257.951 335.5,261C 337.65,262.411 339.984,263.245 342.5,263.5C 343.464,282.781 352.797,296.114 370.5,303.5C 355.872,305.098 342.205,309.598 329.5,317C 316.825,318.501 304.158,320.001 291.5,321.5C 296.13,316.369 300.963,311.369 306,306.5C 316.252,289.911 322.419,271.911 324.5,252.5 Z"/></g>
<g><path style="opacity:1" fill="#f03249" d="M 49.5,261.5 C 57.2914,263.727 64.6247,267.061 71.5,271.5C 69.1664,275.813 66.4997,279.813 63.5,283.5C 59.4206,281.377 55.2539,279.377 51,277.5C 26.8115,289.179 12.3115,308.179 7.5,334.5C 5.76186,300.962 19.7619,276.629 49.5,261.5 Z"/></g>
<g><path style="opacity:1" fill="#f03349" d="M 156.5,261.5 C 160.527,263.513 164.527,265.513 168.5,267.5C 187.73,281.954 198.063,301.287 199.5,325.5C 199.5,327.833 199.5,330.167 199.5,332.5C 193.842,307.325 179.342,288.991 156,277.5C 151.725,279.892 147.225,281.559 142.5,282.5C 139.928,279.031 137.594,275.364 135.5,271.5C 142.138,267.347 149.138,264.014 156.5,261.5 Z"/></g>
<g><path style="opacity:0.997" fill="#fe4759" d="M 63.5,283.5 C 61.0528,286.885 58.7195,290.385 56.5,294C 60.5082,293.505 64.5082,292.671 68.5,291.5C 64.4145,298.1 60.0812,304.6 55.5,311C 71.2854,306.072 87.1187,300.906 103,295.5C 119.143,301.105 135.309,306.271 151.5,311C 146.809,304.834 142.809,298.334 139.5,291.5C 143.104,292.874 146.771,293.707 150.5,294C 148.003,290.011 145.336,286.177 142.5,282.5C 147.225,281.559 151.725,279.892 156,277.5C 179.342,288.991 193.842,307.325 199.5,332.5C 198.752,336.812 198.086,341.146 197.5,345.5C 196.385,348.831 195.051,352.164 193.5,355.5C 176.24,356.489 159.24,358.989 142.5,363C 132.046,368.282 125.046,376.449 121.5,387.5C 119.864,391.21 119.198,395.21 119.5,399.5C 102.163,399.667 84.8301,399.5 67.5,399C 32.8025,391.137 12.8025,369.637 7.5,334.5C 12.3115,308.179 26.8115,289.179 51,277.5C 55.2539,279.377 59.4206,281.377 63.5,283.5 Z"/></g>
<g><path style="opacity:1" fill="#f03149" d="M 139.5,291.5 C 142.809,298.334 146.809,304.834 151.5,311C 135.309,306.271 119.143,301.105 103,295.5C 87.1187,300.906 71.2854,306.072 55.5,311C 60.0812,304.6 64.4145,298.1 68.5,291.5C 79.9251,287.135 91.5918,283.135 103.5,279.5C 115.596,283.31 127.596,287.31 139.5,291.5 Z"/></g>
<g><path style="opacity:1" fill="#7a9e51" d="M 370.5,303.5 C 374.851,303.969 379.184,304.636 383.5,305.5C 385.981,311.971 389.647,317.638 394.5,322.5C 384.547,323.738 374.88,326.072 365.5,329.5C 359.158,331.171 353.158,333.671 347.5,337C 343.472,337.392 339.472,337.892 335.5,338.5C 330.141,339.003 324.807,339.67 319.5,340.5C 310.822,341.335 302.155,342.335 293.5,343.5C 291.742,343.408 290.076,343.075 288.5,342.5C 285.704,339.203 282.704,336.036 279.5,333C 283.369,328.963 287.369,325.13 291.5,321.5C 304.158,320.001 316.825,318.501 329.5,317C 342.205,309.598 355.872,305.098 370.5,303.5 Z"/></g>
<g><path style="opacity:1" fill="#f5e1a4" d="M 199.5,325.5 C 203.298,328.796 206.964,332.296 210.5,336C 218.673,341.41 227.007,346.243 235.5,350.5C 233.901,350.232 232.568,350.566 231.5,351.5C 224.284,351.617 217.118,352.283 210,353.5C 208.744,353.352 207.577,353.018 206.5,352.5C 203.19,350.518 200.19,348.185 197.5,345.5C 198.086,341.146 198.752,336.812 199.5,332.5C 199.5,330.167 199.5,327.833 199.5,325.5 Z"/></g>
<g><path style="opacity:0.999" fill="#fec146" d="M 365.5,329.5 C 364.639,331.386 363.639,333.22 362.5,335C 381.461,336.481 397.128,344.314 409.5,358.5C 415.757,367.584 420.09,377.584 422.5,388.5C 414.96,417.04 396.626,433.707 367.5,438.5C 367.5,436.167 367.5,433.833 367.5,431.5C 362.167,431.5 356.833,431.5 351.5,431.5C 351.5,433.833 351.5,436.167 351.5,438.5C 335.499,436.833 319.499,435.166 303.5,433.5C 303.5,433.167 303.5,432.833 303.5,432.5C 303.5,424.167 303.5,415.833 303.5,407.5C 298.167,407.5 292.833,407.5 287.5,407.5C 287.5,415.167 287.5,422.833 287.5,430.5C 268.615,428.791 249.949,426.458 231.5,423.5C 220.778,423.063 210.111,422.063 199.5,420.5C 199.5,413.5 199.5,406.5 199.5,399.5C 194.167,399.5 188.833,399.5 183.5,399.5C 183.5,405.833 183.5,412.167 183.5,418.5C 170.723,417.365 158.057,415.532 145.5,413C 133.52,408.188 125.52,399.688 121.5,387.5C 125.046,376.449 132.046,368.282 142.5,363C 159.24,358.989 176.24,356.489 193.5,355.5C 198.249,355.281 202.583,354.281 206.5,352.5C 207.577,353.018 208.744,353.352 210,353.5C 217.118,352.283 224.284,351.617 231.5,351.5C 231.5,364.833 231.5,378.167 231.5,391.5C 236.833,391.5 242.167,391.5 247.5,391.5C 247.5,377.5 247.5,363.5 247.5,349.5C 260.625,347.215 273.958,345.382 287.5,344C 288.056,343.617 288.389,343.117 288.5,342.5C 290.076,343.075 291.742,343.408 293.5,343.5C 302.155,342.335 310.822,341.335 319.5,340.5C 319.5,354.833 319.5,369.167 319.5,383.5C 324.833,383.5 330.167,383.5 335.5,383.5C 335.5,368.5 335.5,353.5 335.5,338.5C 339.472,337.892 343.472,337.392 347.5,337C 353.158,333.671 359.158,331.171 365.5,329.5 Z"/></g>
<g><path style="opacity:1" fill="#fe9500" d="M 335.5,338.5 C 335.5,353.5 335.5,368.5 335.5,383.5C 330.167,383.5 324.833,383.5 319.5,383.5C 319.5,369.167 319.5,354.833 319.5,340.5C 324.807,339.67 330.141,339.003 335.5,338.5 Z"/></g>
<g><path style="opacity:0.988" fill="#a5e786" d="M 409.5,440.5 C 420.937,424.99 425.271,407.657 422.5,388.5C 420.09,377.584 415.757,367.584 409.5,358.5C 430.392,353.027 451.392,348.027 472.5,343.5C 474.624,351.208 476.958,358.875 479.5,366.5C 479.167,367.167 478.833,367.833 478.5,368.5C 468.833,373.333 459.167,378.167 449.5,383C 467.497,383.5 485.497,383.667 503.5,383.5C 503.5,394.167 503.5,404.833 503.5,415.5C 485.497,415.333 467.497,415.5 449.5,416C 459.167,420.833 468.833,425.667 478.5,430.5C 478.833,431.167 479.167,431.833 479.5,432.5C 476.958,440.125 474.624,447.792 472.5,455.5C 451.392,450.973 430.392,445.973 409.5,440.5 Z"/></g>
<g><path style="opacity:1" fill="#fea32b" d="M 197.5,345.5 C 200.19,348.185 203.19,350.518 206.5,352.5C 202.583,354.281 198.249,355.281 193.5,355.5C 195.051,352.164 196.385,348.831 197.5,345.5 Z"/></g>
<g><path style="opacity:1" fill="#ff9500" d="M 247.5,349.5 C 247.5,363.5 247.5,377.5 247.5,391.5C 242.167,391.5 236.833,391.5 231.5,391.5C 231.5,378.167 231.5,364.833 231.5,351.5C 232.568,350.566 233.901,350.232 235.5,350.5C 239.466,349.838 243.466,349.505 247.5,349.5 Z"/></g>
<g><path style="opacity:0.999" fill="#ffa426" d="M 121.5,387.5 C 125.52,399.688 133.52,408.188 145.5,413C 158.057,415.532 170.723,417.365 183.5,418.5C 183.5,426.5 183.5,434.5 183.5,442.5C 172.481,441.581 161.481,440.414 150.5,439C 130.253,433.589 119.92,420.423 119.5,399.5C 119.198,395.21 119.864,391.21 121.5,387.5 Z"/></g>
<g><path style="opacity:1" fill="#fe9400" d="M 199.5,420.5 C 194.137,420.051 188.804,419.384 183.5,418.5C 183.5,412.167 183.5,405.833 183.5,399.5C 188.833,399.5 194.167,399.5 199.5,399.5C 199.5,406.5 199.5,413.5 199.5,420.5 Z"/></g>
<g><path style="opacity:1" fill="#fe9500" d="M 351.5,399.5 C 356.833,399.5 362.167,399.5 367.5,399.5C 367.5,404.833 367.5,410.167 367.5,415.5C 362.167,415.5 356.833,415.5 351.5,415.5C 351.5,410.167 351.5,404.833 351.5,399.5 Z"/></g>
<g><path style="opacity:1" fill="#fe9500" d="M 231.5,423.5 C 231.5,418.167 231.5,412.833 231.5,407.5C 236.833,407.5 242.167,407.5 247.5,407.5C 247.5,412.833 247.5,418.167 247.5,423.5C 242.167,423.5 236.833,423.5 231.5,423.5 Z"/></g>
<g><path style="opacity:1" fill="#fe9400" d="M 303.5,432.5 C 298.187,431.902 292.854,431.569 287.5,431.5C 287.5,431.167 287.5,430.833 287.5,430.5C 287.5,422.833 287.5,415.167 287.5,407.5C 292.833,407.5 298.167,407.5 303.5,407.5C 303.5,415.833 303.5,424.167 303.5,432.5 Z"/></g>
<g><path style="opacity:1" fill="#fe8205" d="M 183.5,418.5 C 188.804,419.384 194.137,420.051 199.5,420.5C 199.5,428.5 199.5,436.5 199.5,444.5C 194.064,444.32 188.73,443.654 183.5,442.5C 183.5,434.5 183.5,426.5 183.5,418.5 Z"/></g>
<g><path style="opacity:1" fill="#ffa426" d="M 199.5,420.5 C 210.111,422.063 220.778,423.063 231.5,423.5C 249.949,426.458 268.615,428.791 287.5,430.5C 287.5,430.833 287.5,431.167 287.5,431.5C 287.5,439.5 287.5,447.5 287.5,455.5C 258.139,451.979 228.806,448.312 199.5,444.5C 199.5,436.5 199.5,428.5 199.5,420.5 Z"/></g>
<g><path style="opacity:1" fill="#fe8205" d="M 287.5,431.5 C 292.854,431.569 298.187,431.902 303.5,432.5C 303.5,432.833 303.5,433.167 303.5,433.5C 303.5,441.5 303.5,449.5 303.5,457.5C 298.193,456.67 292.859,456.003 287.5,455.5C 287.5,447.5 287.5,439.5 287.5,431.5 Z"/></g>
<g><path style="opacity:1" fill="#fe9400" d="M 367.5,438.5 C 367.5,438.833 367.5,439.167 367.5,439.5C 362.167,439.5 356.833,439.5 351.5,439.5C 351.5,439.167 351.5,438.833 351.5,438.5C 351.5,436.167 351.5,433.833 351.5,431.5C 356.833,431.5 362.167,431.5 367.5,431.5C 367.5,433.833 367.5,436.167 367.5,438.5 Z"/></g>
<g><path style="opacity:1" fill="#fea426" d="M 422.5,388.5 C 425.271,407.657 420.937,424.99 409.5,440.5C 393.31,458.735 372.977,466.235 348.5,463C 333.525,460.91 318.525,459.077 303.5,457.5C 303.5,449.5 303.5,441.5 303.5,433.5C 319.499,435.166 335.499,436.833 351.5,438.5C 351.5,438.833 351.5,439.167 351.5,439.5C 351.5,447.167 351.5,454.833 351.5,462.5C 356.833,462.5 362.167,462.5 367.5,462.5C 367.5,454.833 367.5,447.167 367.5,439.5C 367.5,439.167 367.5,438.833 367.5,438.5C 396.626,433.707 414.96,417.04 422.5,388.5 Z"/></g>
<g><path style="opacity:1" fill="#fd8204" d="M 351.5,439.5 C 356.833,439.5 362.167,439.5 367.5,439.5C 367.5,447.167 367.5,454.833 367.5,462.5C 362.167,462.5 356.833,462.5 351.5,462.5C 351.5,454.833 351.5,447.167 351.5,439.5 Z"/></g>
</svg>
